<svg xmlns="http://www.w3.org/2000/svg" width="12.075" height="12.075" viewBox="0 0 12.075 12.075">
  <path id="external-link-alt-solid" d="M10.188,7.547H9.433a.377.377,0,0,0-.377.377v2.641H1.509V3.019h3.4a.377.377,0,0,0,.377-.377V1.887a.377.377,0,0,0-.377-.377H1.132A1.132,1.132,0,0,0,0,2.641v8.3a1.132,1.132,0,0,0,1.132,1.132h8.3a1.132,1.132,0,0,0,1.132-1.132V7.924A.377.377,0,0,0,10.188,7.547ZM11.509,0H8.49a.567.567,0,0,0-.4.967l.843.843L3.184,7.555a.566.566,0,0,0,0,.8l.535.534a.566.566,0,0,0,.8,0l5.745-5.747.842.841a.567.567,0,0,0,.967-.4V.566A.566.566,0,0,0,11.509,0Z" fill="#d87668"/>
</svg>
