<svg xmlns="http://www.w3.org/2000/svg" width="140.003" height="28.186" viewBox="0 0 140.003 28.186">
  <g id="グループ_384" data-name="グループ 384" transform="translate(-446.424 -288.415)">
    <g id="グループ_381" data-name="グループ 381" transform="translate(446.424 294.231)">
      <path id="パス_6848" data-name="パス 6848" d="M506.98,307.168,494.4,311.821l6.4,2.373a.746.746,0,0,1,0,1.4l-6.4,2.373,12.585,4.652a1.416,1.416,0,0,0,2.008-1.4V308.567A1.416,1.416,0,0,0,506.98,307.168Z" transform="translate(-470.88 -303.734)" fill="#fff"/>
      <path id="パス_6849" data-name="パス 6849" d="M448.433,322.485l21.506-7.974-6.419-2.373a.746.746,0,0,1,0-1.4l6.419-2.373-21.506-7.974a1.417,1.417,0,0,0-2.009,1.4v19.3A1.417,1.417,0,0,0,448.433,322.485Z" transform="translate(-446.424 -300.28)" fill="#fff"/>
      <path id="パス_6850" data-name="パス 6850" d="M493.614,319.15l-6.4-2.373-6.419,2.372a.746.746,0,0,0,0,1.4l6.419,2.373,6.4-2.373A.746.746,0,0,0,493.614,319.15Z" transform="translate(-463.698 -308.69)" fill="#dadbdb"/>
    </g>
    <g id="グループ_383" data-name="グループ 383" transform="translate(491.875 288.415)">
      <path id="パス_6851" data-name="パス 6851" d="M627.233,316.364h5.093l.05-27.95h-5.07Z" transform="translate(-584.052 -288.415)" fill="#fff"/>
      <path id="パス_6852" data-name="パス 6852" d="M552.717,311.039a6.946,6.946,0,0,0-1.979-1.045q-1.1-.374-2.2-.638l-1.452-.362a9.867,9.867,0,0,1-1.43-.473,2.737,2.737,0,0,1-1.067-.748,1.794,1.794,0,0,1-.385-1.188,1.907,1.907,0,0,1,.176-.8,1.784,1.784,0,0,1,.572-.682,3.078,3.078,0,0,1,1.034-.473,5.984,5.984,0,0,1,1.562-.176,12.861,12.861,0,0,1,1.54.1q.813.1,1.639.253t1.627.363q.8.21,1.529.451v-4.246a19.355,19.355,0,0,0-3.1-.826,20.1,20.1,0,0,0-3.674-.319,10.889,10.889,0,0,0-3.047.418,7.348,7.348,0,0,0-2.53,1.276,6.133,6.133,0,0,0-1.727,2.167,6.982,6.982,0,0,0-.638,3.091,5.708,5.708,0,0,0,.473,2.453,4.728,4.728,0,0,0,1.276,1.661,6.679,6.679,0,0,0,1.859,1.067,22.006,22.006,0,0,0,2.2.715q.9.221,1.727.441a8.991,8.991,0,0,1,1.463.516,3.057,3.057,0,0,1,1.023.737,1.644,1.644,0,0,1,.385,1.123,1.843,1.843,0,0,1-.352,1.133,2.675,2.675,0,0,1-.957.781,5.034,5.034,0,0,1-1.441.451,10.7,10.7,0,0,1-1.8.143,17.3,17.3,0,0,1-2.706-.231,16.663,16.663,0,0,1-3.168-.869v4.2a12.126,12.126,0,0,0,2.674.8,18.84,18.84,0,0,0,3.641.32,15.347,15.347,0,0,0,3.751-.429,8.353,8.353,0,0,0,2.926-1.32,6.214,6.214,0,0,0,1.9-2.233,6.859,6.859,0,0,0,.682-3.146,5.812,5.812,0,0,0-.561-2.717A5.178,5.178,0,0,0,552.717,311.039Z" transform="translate(-539.143 -294.436)" fill="#fff"/>
      <path id="パス_6853" data-name="パス 6853" d="M711.975,288.415h-5.1v6.318a17.622,17.622,0,0,0-8.521,1.556,9.753,9.753,0,0,0-5,5.9c-1.2,4.168-.867,8.232,1.823,11.484,2.354,2.847,7.206,4,11.7,1.719l-.007.972h5.07l.019-.148Zm-5.067,21.891a5.828,5.828,0,0,1-4.873,1.5c-1.915-.253-4.809-2.376-3.737-7.589.3-1.2,1.593-5.9,8.579-5.2Z" transform="translate(-617.423 -288.415)" fill="#fff"/>
      <g id="グループ_382" data-name="グループ 382" transform="translate(18.762 6.278)">
        <path id="パス_6854" data-name="パス 6854" d="M583.083,302.817a10.005,10.005,0,0,0-5,5.9c-1.2,4.168-.867,8.232,1.822,11.484,2.354,2.847,7.207,4,11.7,1.719l-.007.972h5.07l.019-.148.014-20.733C594.272,301.337,588.011,300.314,583.083,302.817Zm3.679,15.515c-1.915-.253-4.81-2.376-3.737-7.589.3-1.2,1.594-5.9,8.579-5.2l.031,11.291A5.829,5.829,0,0,1,586.762,318.332Z" transform="translate(-577.418 -301.221)" fill="#fff"/>
      </g>
      <path id="パス_6855" data-name="パス 6855" d="M660.761,317.355c-3.69,2.995-8.173,1.629-8.056-3.227V302.242H647.68l-.114,11.173a23.506,23.506,0,0,0,.207,3.6,7.873,7.873,0,0,0,1.089,3.132c1.884,3.085,6.961,4.857,11.914,2.209l-.013.991h5.047l.019-21.108H660.8Z" transform="translate(-594.417 -295.464)" fill="#fff"/>
    </g>
  </g>
</svg>
