<svg xmlns="http://www.w3.org/2000/svg" width="396.699" height="79.867" viewBox="0 0 396.699 79.867">
  <g id="グループ_276" data-name="グループ 276" transform="translate(-160 -526)">
    <g id="グループ_67" data-name="グループ 67" transform="translate(160 542.85)">
      <path id="パス_3" data-name="パス 3" d="M529.848,307.372,494.395,320.48l18.03,6.685a2.1,2.1,0,0,1,0,3.94l-18.03,6.685,35.453,13.106c2.742,1.015,5.656-.437,5.656-3.939V311.312C535.5,307.809,532.59,306.359,529.848,307.372Z" transform="translate(-428.153 -297.699)" fill="#e78c7d"/>
      <path id="パス_4" data-name="パス 4" d="M452.083,362.832l60.583-22.463-18.081-6.685a2.1,2.1,0,0,1,0-3.941l18.081-6.683L452.083,300.6c-2.742-1.016-5.659.435-5.659,3.938v54.358C446.424,362.4,449.34,363.849,452.083,362.832Z" transform="translate(-446.424 -300.28)" fill="#e78c7d"/>
      <path id="パス_5" data-name="パス 5" d="M517.791,323.462l-18.03-6.685-18.081,6.683a2.1,2.1,0,0,0,0,3.941l18.081,6.685,18.03-6.685A2.1,2.1,0,0,0,517.791,323.462Z" transform="translate(-433.519 -293.997)" fill="#d87668"/>
    </g>
    <g id="グループ_69" data-name="グループ 69" transform="translate(288.034 526)">
      <path id="パス_6" data-name="パス 6" d="M627.233,367.614h14.346l.14-79.2H627.436Z" transform="translate(-504.475 -288.415)" fill="#323232"/>
      <path id="パス_7" data-name="パス 7" d="M577.381,330.687a19.569,19.569,0,0,0-5.576-2.944q-3.1-1.052-6.2-1.8l-4.09-1.02a27.807,27.807,0,0,1-4.028-1.333,7.714,7.714,0,0,1-3.006-2.107,5.054,5.054,0,0,1-1.084-3.347,5.378,5.378,0,0,1,.5-2.262,5.03,5.03,0,0,1,1.612-1.922,8.67,8.67,0,0,1,2.912-1.333,16.863,16.863,0,0,1,4.4-.494,36.223,36.223,0,0,1,4.338.279q2.291.278,4.618.713t4.585,1.022q2.26.592,4.307,1.272V303.45a54.52,54.52,0,0,0-8.737-2.325,56.634,56.634,0,0,0-10.351-.9,30.678,30.678,0,0,0-8.583,1.178A20.7,20.7,0,0,0,545.868,305,17.279,17.279,0,0,0,541,311.1a19.666,19.666,0,0,0-1.8,8.708,16.074,16.074,0,0,0,1.332,6.911,13.311,13.311,0,0,0,3.595,4.678,18.811,18.811,0,0,0,5.236,3,61.975,61.975,0,0,0,6.2,2.013q2.542.622,4.865,1.242a25.323,25.323,0,0,1,4.121,1.454,8.608,8.608,0,0,1,2.882,2.077,4.631,4.631,0,0,1,1.085,3.162,5.192,5.192,0,0,1-.993,3.191,7.534,7.534,0,0,1-2.7,2.2,14.187,14.187,0,0,1-4.058,1.27,30.136,30.136,0,0,1-5.083.4,48.715,48.715,0,0,1-7.622-.652,46.927,46.927,0,0,1-8.924-2.447v11.835a34.162,34.162,0,0,0,7.531,2.262,53.08,53.08,0,0,0,10.256.9,43.224,43.224,0,0,0,10.567-1.21,23.537,23.537,0,0,0,8.242-3.719,17.509,17.509,0,0,0,5.362-6.29,19.323,19.323,0,0,0,1.921-8.863,16.369,16.369,0,0,0-1.581-7.653A14.585,14.585,0,0,0,577.381,330.687Z" transform="translate(-539.143 -283.45)" fill="#323232"/>
      <path id="パス_8" data-name="パス 8" d="M747.013,288.415h-14.36v17.9a49.392,49.392,0,0,0-24,4.409,27.589,27.589,0,0,0-14.1,16.722c-3.375,11.81-2.442,23.325,5.135,32.54,6.631,8.066,20.3,11.324,32.959,4.871l-.021,2.753h14.281l.054-.419Zm-14.274,62.029c-5.407,4.623-10.2,4.711-13.727,4.243-5.394-.717-13.548-6.734-10.527-21.5.844-3.4,4.488-16.707,24.169-14.733Z" transform="translate(-478.348 -288.414)" fill="#323232"/>
      <g id="グループ_68" data-name="グループ 68" transform="translate(53.43 18.15)">
        <path id="パス_9" data-name="パス 9" d="M593.377,305.717c-5.625,2.857-11.82,8.705-14.1,16.624-3.375,11.742-2.441,23.189,5.134,32.35,6.633,8.019,20.3,11.26,32.959,4.843l-.021,2.737h14.282l.054-.417.039-58.4C624.894,301.547,607.257,298.665,593.377,305.717Zm10.362,43.706c-5.394-.713-13.549-6.695-10.528-21.377.845-3.382,4.489-16.609,24.168-14.647l.087,31.806C612.058,349.8,607.267,349.888,603.739,349.423Z" transform="translate(-577.418 -301.221)" fill="#323232"/>
      </g>
      <path id="パス_10" data-name="パス 10" d="M684.737,344.816c-10.394,8.436-23.022,4.59-22.693-9.092V302.242H647.889l-.32,31.474a66.214,66.214,0,0,0,.583,10.152,22.179,22.179,0,0,0,3.067,8.822c5.308,8.69,19.61,13.683,33.561,6.222l-.038,2.791h14.216l.052-59.462H684.857Z" transform="translate(-496.237 -282.683)" fill="#323232"/>
    </g>
  </g>
</svg>
