<svg xmlns="http://www.w3.org/2000/svg" width="104.308" height="21" viewBox="0 0 104.308 21">
  <g id="グループ_395" data-name="グループ 395" transform="translate(-160 -526)">
    <g id="グループ_67" data-name="グループ 67" transform="translate(160 530.431)">
      <path id="パス_3" data-name="パス 3" d="M503.717,307.139l-9.322,3.447,4.741,1.758a.552.552,0,0,1,0,1.036l-4.741,1.758,9.322,3.446a1.049,1.049,0,0,0,1.487-1.036v-9.372A1.049,1.049,0,0,0,503.717,307.139Z" transform="translate(-476.977 -304.596)" fill="#e78c7d"/>
      <path id="パス_4" data-name="パス 4" d="M447.912,316.727l15.93-5.906-4.754-1.758a.552.552,0,0,1,0-1.036l4.754-1.757-15.93-5.906a1.049,1.049,0,0,0-1.488,1.035v14.293A1.049,1.049,0,0,0,447.912,316.727Z" transform="translate(-446.424 -300.28)" fill="#e78c7d"/>
      <path id="パス_5" data-name="パス 5" d="M490.163,318.535l-4.741-1.758-4.754,1.757a.552.552,0,0,0,0,1.036l4.754,1.758,4.741-1.758A.552.552,0,0,0,490.163,318.535Z" transform="translate(-468.005 -310.787)" fill="#d87668"/>
    </g>
    <g id="グループ_69" data-name="グループ 69" transform="translate(193.665 526)">
      <path id="パス_6" data-name="パス 6" d="M627.233,309.239h3.772l.037-20.825h-3.756Z" transform="translate(-594.955 -288.415)" fill="#323232"/>
      <path id="パス_7" data-name="パス 7" d="M549.2,308.235a5.144,5.144,0,0,0-1.466-.774q-.815-.277-1.63-.473l-1.076-.268a7.3,7.3,0,0,1-1.059-.35,2.028,2.028,0,0,1-.79-.554,1.329,1.329,0,0,1-.285-.88,1.414,1.414,0,0,1,.13-.595,1.322,1.322,0,0,1,.424-.505,2.28,2.28,0,0,1,.766-.35,4.434,4.434,0,0,1,1.157-.13,9.527,9.527,0,0,1,1.141.073q.6.073,1.214.187t1.206.269q.594.156,1.132.334v-3.145a14.337,14.337,0,0,0-2.3-.611,14.892,14.892,0,0,0-2.722-.236,8.066,8.066,0,0,0-2.257.31,5.443,5.443,0,0,0-1.874.945,4.543,4.543,0,0,0-1.279,1.605,5.171,5.171,0,0,0-.472,2.29,4.225,4.225,0,0,0,.35,1.817,3.5,3.5,0,0,0,.945,1.23,4.945,4.945,0,0,0,1.377.79,16.294,16.294,0,0,0,1.63.529q.668.163,1.279.326a6.655,6.655,0,0,1,1.083.382,2.263,2.263,0,0,1,.758.546,1.218,1.218,0,0,1,.285.831,1.366,1.366,0,0,1-.261.839,1.981,1.981,0,0,1-.709.578,3.731,3.731,0,0,1-1.067.334,7.926,7.926,0,0,1-1.337.106,12.808,12.808,0,0,1-2-.171,12.336,12.336,0,0,1-2.347-.643v3.112a8.986,8.986,0,0,0,1.98.595,13.958,13.958,0,0,0,2.7.237,11.365,11.365,0,0,0,2.778-.318,6.188,6.188,0,0,0,2.167-.978,4.6,4.6,0,0,0,1.41-1.654,5.082,5.082,0,0,0,.505-2.33,4.3,4.3,0,0,0-.416-2.012A3.836,3.836,0,0,0,549.2,308.235Z" transform="translate(-539.143 -295.815)" fill="#323232"/>
      <path id="パス_8" data-name="パス 8" d="M706.975,288.415H703.2v4.707a12.988,12.988,0,0,0-6.312,1.159,7.255,7.255,0,0,0-3.707,4.4c-.887,3.105-.642,6.133,1.35,8.556,1.744,2.121,5.338,2.978,8.666,1.281l-.005.724h3.755l.014-.11Zm-3.753,16.31a4.3,4.3,0,0,1-3.609,1.116c-1.418-.188-3.562-1.771-2.768-5.654.222-.894,1.18-4.393,6.355-3.874Z" transform="translate(-636.332 -288.415)" fill="#323232"/>
      <g id="グループ_68" data-name="グループ 68" transform="translate(14.049 4.772)">
        <path id="パス_9" data-name="パス 9" d="M581.614,302.4a7.411,7.411,0,0,0-3.707,4.371c-.887,3.087-.642,6.1,1.35,8.506,1.744,2.108,5.338,2.961,8.666,1.273l-.005.72h3.755l.014-.11.01-15.357C589.9,301.307,585.264,300.549,581.614,302.4Zm2.725,11.492c-1.418-.187-3.563-1.76-2.768-5.621.222-.889,1.18-4.367,6.355-3.851l.023,8.363A4.317,4.317,0,0,1,584.339,313.9Z" transform="translate(-577.418 -301.221)" fill="#323232"/>
      </g>
      <path id="パス_10" data-name="パス 10" d="M657.339,313.436c-2.733,2.218-6.053,1.207-5.967-2.391v-8.8H647.65l-.084,8.276a17.4,17.4,0,0,0,.153,2.669,5.832,5.832,0,0,0,.806,2.32c1.4,2.285,5.156,3.6,8.824,1.636l-.01.734h3.738l.014-15.635H657.37Z" transform="translate(-607.775 -297.099)" fill="#323232"/>
    </g>
  </g>
</svg>
