<svg xmlns="http://www.w3.org/2000/svg" width="544" height="154.445" viewBox="0 0 544 154.445">
  <g id="グループ_346" data-name="グループ 346" transform="translate(-396.756 -133.586)">
    <g id="グループ_335" data-name="グループ 335" transform="translate(719.072 189.992)">
      <g id="グループ_331" data-name="グループ 331" transform="translate(4.044 0)">
        <g id="グループ_328" data-name="グループ 328" transform="translate(0 9.042)">
          <path id="パス_6778" data-name="パス 6778" d="M484.379,426.168,464.814,433.4l9.95,3.689a1.16,1.16,0,0,1,0,2.174l-9.95,3.689,19.565,7.232a2.2,2.2,0,0,0,3.121-2.174v-19.67A2.2,2.2,0,0,0,484.379,426.168Z" transform="translate(-428.259 -420.83)" fill="#dadbdb"/>
          <path id="パス_6779" data-name="パス 6779" d="M415.956,453.17l33.432-12.4-9.978-3.689a1.159,1.159,0,0,1,0-2.174l9.978-3.689-33.432-12.4A2.2,2.2,0,0,0,412.833,421v30A2.2,2.2,0,0,0,415.956,453.17Z" transform="translate(-412.833 -418.651)" fill="#dadbdb"/>
          <path id="パス_6780" data-name="パス 6780" d="M470.234,440.215l-9.95-3.689-9.978,3.689a1.159,1.159,0,0,0,0,2.174l9.978,3.689,9.95-3.689A1.16,1.16,0,0,0,470.234,440.215Z" transform="translate(-423.729 -423.955)" fill="#b3b3b4"/>
        </g>
        <g id="グループ_330" data-name="グループ 330" transform="translate(70.655)">
          <path id="パス_6781" data-name="パス 6781" d="M608.756,449.242h7.917l.077-43.449h-7.882Z" transform="translate(-541.629 -405.794)" fill="#dadbdb"/>
          <path id="パス_6782" data-name="パス 6782" d="M534.4,435.4a10.789,10.789,0,0,0-3.077-1.624q-1.712-.58-3.421-.992l-2.257-.563a15.308,15.308,0,0,1-2.223-.736,4.235,4.235,0,0,1-1.658-1.162,2.787,2.787,0,0,1-.6-1.847,2.97,2.97,0,0,1,.274-1.248,2.772,2.772,0,0,1,.889-1.06,4.771,4.771,0,0,1,1.607-.736,9.305,9.305,0,0,1,2.429-.273,19.988,19.988,0,0,1,2.394.153q1.265.154,2.549.394t2.53.563q1.248.327,2.378.7v-6.6a30.206,30.206,0,0,0-4.822-1.283,31.327,31.327,0,0,0-5.712-.5,16.908,16.908,0,0,0-4.736.65,11.423,11.423,0,0,0-3.934,1.983,9.54,9.54,0,0,0-2.684,3.369,10.837,10.837,0,0,0-.992,4.8,8.88,8.88,0,0,0,.736,3.814,7.336,7.336,0,0,0,1.984,2.582,10.357,10.357,0,0,0,2.89,1.658,33.9,33.9,0,0,0,3.42,1.111q1.4.344,2.685.685a13.971,13.971,0,0,1,2.274.8,4.748,4.748,0,0,1,1.59,1.146,2.555,2.555,0,0,1,.6,1.745,2.867,2.867,0,0,1-.548,1.762,4.163,4.163,0,0,1-1.487,1.214,7.85,7.85,0,0,1-2.24.7,16.634,16.634,0,0,1-2.8.222,26.836,26.836,0,0,1-4.207-.36,25.821,25.821,0,0,1-4.925-1.35v6.532a18.838,18.838,0,0,0,4.156,1.248,29.323,29.323,0,0,0,5.66.5,23.852,23.852,0,0,0,5.831-.667,12.984,12.984,0,0,0,4.549-2.052,9.653,9.653,0,0,0,2.958-3.471,10.657,10.657,0,0,0,1.06-4.89,9.03,9.03,0,0,0-.873-4.223A8.06,8.06,0,0,0,534.4,435.4Z" transform="translate(-513.303 -409.592)" fill="#dadbdb"/>
          <path id="パス_6783" data-name="パス 6783" d="M709.663,405.794h-7.925v9.821a27.4,27.4,0,0,0-13.246,2.418,15.161,15.161,0,0,0-7.779,9.174c-1.863,6.48-1.347,12.8,2.833,17.852,3.66,4.425,11.2,6.213,18.188,2.672l-.011,1.511H709.6l.03-.23Zm-7.877,34.031a9.059,9.059,0,0,1-7.575,2.328c-2.976-.393-7.476-3.694-5.81-11.8.466-1.866,2.478-9.165,13.337-8.082Z" transform="translate(-562.678 -405.794)" fill="#dadbdb"/>
          <g id="グループ_329" data-name="グループ 329" transform="translate(29.167 9.759)">
            <path id="パス_6784" data-name="パス 6784" d="M563.584,422.151a15.558,15.558,0,0,0-7.779,9.174c-1.863,6.48-1.347,12.8,2.833,17.853,3.66,4.425,11.2,6.213,18.188,2.672l-.011,1.511H584.7l.03-.23.022-32.23C580.977,419.85,571.244,418.26,563.584,422.151Zm5.719,24.119c-2.977-.393-7.477-3.694-5.809-11.8.465-1.866,2.477-9.165,13.337-8.082l.047,17.552A9.057,9.057,0,0,1,569.3,446.271Z" transform="translate(-554.777 -419.671)" fill="#dadbdb"/>
          </g>
          <path id="パス_6785" data-name="パス 6785" d="M651.3,444.27c-5.736,4.655-12.7,2.534-12.523-5.017V420.777h-7.811l-.176,17.369a36.608,36.608,0,0,0,.321,5.6,12.234,12.234,0,0,0,1.693,4.869c2.929,4.8,10.821,7.551,18.521,3.433l-.021,1.54h7.845l.029-32.813h-7.811Z" transform="translate(-548.167 -410.24)" fill="#dadbdb"/>
        </g>
      </g>
      <g id="グループ_332" data-name="グループ 332" transform="translate(62.59 59.102)">
        <path id="パス_6786" data-name="パス 6786" d="M497.251,490.787h-.006l-.9.738-.259-.323,1.231-1.006h.359v4.979h-.423Z" transform="translate(-496.084 -489.943)" fill="#323232"/>
        <path id="パス_6787" data-name="パス 6787" d="M502.561,489.836l.366.127-2.131,5.359-.373-.127Z" transform="translate(-497.372 -489.836)" fill="#323232"/>
        <path id="パス_6788" data-name="パス 6788" d="M504.444,494.647l1.87-1.976q.127-.127.253-.271a2.508,2.508,0,0,0,.228-.3,1.625,1.625,0,0,0,.167-.334,1.149,1.149,0,0,0,.063-.38.857.857,0,0,0-.281-.682,1.037,1.037,0,0,0-.71-.246.978.978,0,0,0-.653.225,1.02,1.02,0,0,0-.345.591l-.493-.049a1.331,1.331,0,0,1,.527-.861,1.679,1.679,0,0,1,.985-.285,1.711,1.711,0,0,1,.549.088,1.42,1.42,0,0,1,.456.25,1.169,1.169,0,0,1,.314.4,1.2,1.2,0,0,1,.117.538,1.6,1.6,0,0,1-.088.534,2.313,2.313,0,0,1-.232.468,2.959,2.959,0,0,1-.331.418c-.124.132-.25.262-.376.394l-1.554,1.6h2.615v.38h-3.079Z" transform="translate(-498.565 -489.907)" fill="#323232"/>
        <path id="パス_6789" data-name="パス 6789" d="M511.113,492.559l-1.7-2.363h.548l1.435,2.025,1.414-2.025h.556l-1.688,2.363,1.849,2.616h-.577l-1.575-2.25-1.576,2.25h-.556Z" transform="translate(-499.989 -489.943)" fill="#323232"/>
      </g>
      <g id="グループ_333" data-name="グループ 333" transform="translate(83.72 59.356)">
        <path id="パス_6790" data-name="パス 6790" d="M528,492.559l-1.7-2.363h.549l1.435,2.025L529.7,490.2h.556l-1.687,2.363,1.85,2.616h-.577l-1.576-2.25-1.575,2.25h-.556Z" transform="translate(-526.131 -490.196)" fill="#323232"/>
      </g>
      <rect id="長方形_1401" data-name="長方形 1401" width="105.512" height="0.211" transform="translate(0 8.936)" fill="#323232"/>
      <rect id="長方形_1402" data-name="長方形 1402" width="105.512" height="0.211" transform="translate(0 43.67)" fill="#323232"/>
      <rect id="長方形_1403" data-name="長方形 1403" width="0.211" height="41.857" transform="translate(97.494 5.48)" fill="#323232"/>
      <rect id="長方形_1404" data-name="長方形 1404" width="0.211" height="41.857" transform="translate(74.575 5.48)" fill="#323232"/>
      <g id="グループ_334" data-name="グループ 334" transform="translate(63.074 5.48)">
        <rect id="長方形_1405" data-name="長方形 1405" width="0.211" height="41.857" fill="#323232"/>
      </g>
      <path id="パス_6791" data-name="パス 6791" d="M531.4,482.588h-34.63V477.9h.211v4.477h34.208V477.9h.211Z" transform="translate(-433.699 -427.192)" fill="#323232"/>
      <rect id="長方形_1406" data-name="長方形 1406" width="0.211" height="4.582" transform="translate(74.575 50.709)" fill="#323232"/>
    </g>
    <g id="グループ_345" data-name="グループ 345" transform="translate(396.756 133.586)">
      <g id="グループ_338" data-name="グループ 338" transform="translate(16.103 19.659)">
        <path id="パス_6792" data-name="パス 6792" d="M571.973,173.677l-31.585,11.677,16.063,5.955a1.872,1.872,0,0,1,0,3.51l-16.063,5.956,31.585,11.677a3.554,3.554,0,0,0,5.039-3.509V177.186A3.554,3.554,0,0,0,571.973,173.677Z" transform="translate(-455.482 -165.059)" fill="#dadbdb"/>
        <path id="パス_6793" data-name="パス 6793" d="M461.511,217.268l53.973-20.012L499.377,191.3a1.872,1.872,0,0,1,0-3.511l16.108-5.954-53.973-20.012a3.555,3.555,0,0,0-5.042,3.508V213.76A3.555,3.555,0,0,0,461.511,217.268Z" transform="translate(-430.579 -161.541)" fill="#dadbdb"/>
        <path id="パス_6794" data-name="パス 6794" d="M549.138,196.355,533.075,190.4l-16.108,5.954a1.872,1.872,0,0,0,0,3.511l16.108,5.955,16.063-5.956A1.872,1.872,0,0,0,549.138,196.355Z" transform="translate(-448.169 -170.105)" fill="#b3b3b4"/>
        <g id="グループ_337" data-name="グループ 337" transform="translate(0 72.896)">
          <path id="パス_6795" data-name="パス 6795" d="M515.069,308.629h7.914l.077-43.431h-7.879Z" transform="translate(-447.969 -265.198)" fill="#dadbdb"/>
          <path id="パス_6796" data-name="パス 6796" d="M440.748,294.794a10.782,10.782,0,0,0-3.077-1.624q-1.711-.58-3.419-.992L432,291.615a15.351,15.351,0,0,1-2.222-.735,4.247,4.247,0,0,1-1.658-1.162,2.786,2.786,0,0,1-.6-1.847,2.965,2.965,0,0,1,.274-1.248,2.776,2.776,0,0,1,.889-1.06,4.773,4.773,0,0,1,1.606-.735,9.26,9.26,0,0,1,2.428-.274,19.978,19.978,0,0,1,2.393.154q1.264.154,2.547.394t2.529.563q1.248.327,2.376.7v-6.6a30.077,30.077,0,0,0-4.82-1.283,31.3,31.3,0,0,0-5.71-.5,16.922,16.922,0,0,0-4.734.65,11.424,11.424,0,0,0-3.932,1.982,9.546,9.546,0,0,0-2.683,3.368,10.841,10.841,0,0,0-.992,4.8,8.881,8.881,0,0,0,.735,3.812,7.339,7.339,0,0,0,1.983,2.581,10.358,10.358,0,0,0,2.888,1.658,34.291,34.291,0,0,0,3.419,1.111q1.4.343,2.684.684a13.981,13.981,0,0,1,2.273.8,4.74,4.74,0,0,1,1.589,1.146,2.555,2.555,0,0,1,.6,1.744,2.863,2.863,0,0,1-.548,1.76,4.167,4.167,0,0,1-1.487,1.214,7.828,7.828,0,0,1-2.239.7,16.555,16.555,0,0,1-2.8.223,26.811,26.811,0,0,1-4.2-.36,25.821,25.821,0,0,1-4.923-1.35v6.53a18.887,18.887,0,0,0,4.155,1.248,29.291,29.291,0,0,0,5.657.5,23.833,23.833,0,0,0,5.829-.667,12.971,12.971,0,0,0,4.546-2.051,9.658,9.658,0,0,0,2.958-3.47,10.657,10.657,0,0,0,1.06-4.888,9.024,9.024,0,0,0-.873-4.222A8.05,8.05,0,0,0,440.748,294.794Z" transform="translate(-419.654 -268.994)" fill="#dadbdb"/>
          <path id="パス_6797" data-name="パス 6797" d="M615.936,265.2h-7.921v9.817a27.394,27.394,0,0,0-13.241,2.418A15.155,15.155,0,0,0,587,286.6c-1.862,6.478-1.347,12.792,2.832,17.845,3.658,4.423,11.2,6.211,18.18,2.672l-.011,1.51h7.878l.03-.23Zm-7.874,34.017a9.055,9.055,0,0,1-7.572,2.326c-2.975-.393-7.473-3.693-5.807-11.793.465-1.865,2.475-9.161,13.331-8.078Z" transform="translate(-469.009 -265.198)" fill="#dadbdb"/>
          <g id="グループ_336" data-name="グループ 336" transform="translate(29.155 9.755)">
            <path id="パス_6798" data-name="パス 6798" d="M469.915,281.549a15.548,15.548,0,0,0-7.776,9.17c-1.863,6.478-1.347,12.792,2.832,17.845,3.658,4.423,11.2,6.211,18.18,2.672l-.011,1.51h7.878l.03-.23.021-32.217C487.3,279.248,477.572,277.659,469.915,281.549Zm5.716,24.109c-2.975-.393-7.473-3.693-5.807-11.793.466-1.865,2.476-9.161,13.331-8.079l.047,17.545A9.053,9.053,0,0,1,475.631,305.658Z" transform="translate(-461.112 -279.069)" fill="#dadbdb"/>
          </g>
          <path id="パス_6799" data-name="パス 6799" d="M557.6,303.659c-5.734,4.653-12.7,2.532-12.518-5.016V280.175h-7.807l-.177,17.362a36.59,36.59,0,0,0,.321,5.6A12.236,12.236,0,0,0,539.107,308c2.928,4.794,10.817,7.549,18.513,3.433l-.021,1.539h7.843l.029-32.8h-7.808Z" transform="translate(-454.504 -269.642)" fill="#dadbdb"/>
        </g>
      </g>
      <path id="パス_6800" data-name="パス 6800" d="M478.833,302.586H419.4V243.238h59.43Zm-59.22-.21h59.009V243.449H419.614Z" transform="translate(-403.477 -166.126)" fill="#323232"/>
      <path id="パス_6801" data-name="パス 6801" d="M478.833,337.972H419.4v-4.687h.211v4.477h59.009v-4.477h.211Z" transform="translate(-403.477 -192.847)" fill="#323232"/>
      <path id="パス_6802" data-name="パス 6802" d="M411.77,302.61h-4.688V243.18h4.688v.211h-4.477V302.4h4.477Z" transform="translate(-399.82 -166.108)" fill="#323232"/>
      <path id="パス_6803" data-name="パス 6803" d="M552.169,218.478h-95.85V159.085h95.85Zm-95.639-.211h95.428V159.3H456.53Z" transform="translate(-414.432 -141.153)" fill="#323232"/>
      <path id="パス_6804" data-name="パス 6804" d="M701.3,218.478H664.462V159.085H701.3Zm-36.623-.211h36.412V159.3H664.673Z" transform="translate(-476.199 -141.153)" fill="#323232"/>
      <path id="パス_6805" data-name="パス 6805" d="M561.47,202.458a1.981,1.981,0,1,1,1.978-1.981A1.981,1.981,0,0,1,561.47,202.458Zm0-3.751a1.77,1.77,0,1,0,1.767,1.77A1.77,1.77,0,0,0,561.47,198.707Z" transform="translate(-445.049 -152.848)" fill="#323232"/>
      <path id="パス_6806" data-name="パス 6806" d="M517.572,202.458a1.981,1.981,0,1,1,1.977-1.981A1.981,1.981,0,0,1,517.572,202.458Zm0-3.751a1.77,1.77,0,1,0,1.766,1.77A1.77,1.77,0,0,0,517.572,198.707Z" transform="translate(-432.022 -152.848)" fill="#323232"/>
      <path id="パス_6807" data-name="パス 6807" d="M585.985,226.442a3.6,3.6,0,1,1,3.6-3.6A3.6,3.6,0,0,1,585.985,226.442Zm0-7a3.393,3.393,0,1,0,3.385,3.392A3.392,3.392,0,0,0,585.985,219.445Z" transform="translate(-451.844 -159.002)" fill="#323232"/>
      <path id="パス_6808" data-name="パス 6808" d="M459.915,238.295a3.6,3.6,0,1,1,3.6-3.6A3.6,3.6,0,0,1,459.915,238.295Zm0-7a3.393,3.393,0,1,0,3.385,3.392A3.393,3.393,0,0,0,459.915,231.3Z" transform="translate(-414.432 -162.52)" fill="#323232"/>
      <path id="パス_6809" data-name="パス 6809" d="M459.915,168.6a3.6,3.6,0,1,1,3.6-3.6A3.6,3.6,0,0,1,459.915,168.6Zm0-7A3.393,3.393,0,1,0,463.3,165,3.393,3.393,0,0,0,459.915,161.6Z" transform="translate(-414.432 -141.837)" fill="#323232"/>
      <path id="パス_6810" data-name="パス 6810" d="M585.985,180.452a3.6,3.6,0,1,1,3.6-3.6A3.6,3.6,0,0,1,585.985,180.452Zm0-7a3.392,3.392,0,1,0,3.385,3.392A3.392,3.392,0,0,0,585.985,173.456Z" transform="translate(-451.844 -145.355)" fill="#323232"/>
      <g id="グループ_339" data-name="グループ 339" transform="translate(0 103.931)">
        <path id="パス_6811" data-name="パス 6811" d="M397.923,281.965h-.007l-.9.738-.26-.323,1.231-1.006h.359v4.979h-.422Z" transform="translate(-396.756 -281.374)" fill="#323232"/>
      </g>
      <path id="パス_6812" data-name="パス 6812" d="M601.881,218.46h-4.687v-.211h4.477V159.24h-4.477v-.211h4.688Z" transform="translate(-456.237 -141.136)" fill="#323232"/>
      <g id="グループ_340" data-name="グループ 340" transform="translate(148.728 43.066)">
        <path id="パス_6813" data-name="パス 6813" d="M609.411,195.416H609.4l-.9.738-.26-.323,1.231-1.006h.359V199.8h-.422Z" transform="translate(-608.244 -194.825)" fill="#323232"/>
      </g>
      <path id="パス_6814" data-name="パス 6814" d="M727.181,218.46h-4.688v-.211h4.477V159.24h-4.477v-.211h4.688Z" transform="translate(-493.42 -141.136)" fill="#323232"/>
      <g id="グループ_341" data-name="グループ 341" transform="translate(240.001 42.982)">
        <path id="パス_6815" data-name="パス 6815" d="M739.2,195.416h-.007l-.9.738-.261-.323,1.231-1.006h.359V199.8H739.2Z" transform="translate(-738.032 -194.741)" fill="#323232"/>
        <path id="パス_6816" data-name="パス 6816" d="M743.1,201.343a.336.336,0,1,1,.1.239A.325.325,0,0,1,743.1,201.343Z" transform="translate(-739.537 -196.575)" fill="#323232"/>
        <path id="パス_6817" data-name="パス 6817" d="M746.147,197.019h.013a.843.843,0,0,1,.342-.158,1.662,1.662,0,0,1,.4-.052,1.549,1.549,0,0,1,.612.119,1.46,1.46,0,0,1,.8.812,1.585,1.585,0,0,1,.113.6,1.558,1.558,0,0,1-.123.622,1.435,1.435,0,0,1-.341.489,1.572,1.572,0,0,1-.517.32,1.882,1.882,0,0,1-1.3,0,1.586,1.586,0,0,1-.517-.32,1.444,1.444,0,0,1-.341-.489,1.558,1.558,0,0,1-.123-.622,1.6,1.6,0,0,1,.042-.373,1.987,1.987,0,0,1,.113-.334c.046-.105.1-.2.148-.3s.1-.184.155-.268l1.35-2.243h.534Zm.647.155a1.135,1.135,0,0,0-.458.091,1.165,1.165,0,0,0-.619.622,1.143,1.143,0,0,0-.091.454,1.284,1.284,0,0,0,.085.475,1.048,1.048,0,0,0,.608.608,1.377,1.377,0,0,0,.949,0,1.055,1.055,0,0,0,.609-.608,1.284,1.284,0,0,0,.084-.475,1.144,1.144,0,0,0-.091-.454,1.157,1.157,0,0,0-.622-.622A1.138,1.138,0,0,0,746.794,197.174Z" transform="translate(-740.148 -194.741)" fill="#323232"/>
        <path id="パス_6818" data-name="パス 6818" d="M752.2,195.416h-.007l-.9.738-.26-.323,1.231-1.006h.359V199.8H752.2Z" transform="translate(-741.89 -194.741)" fill="#323232"/>
        <path id="パス_6819" data-name="パス 6819" d="M755.868,196a1.282,1.282,0,0,1,.105-.527,1.215,1.215,0,0,1,.288-.408,1.323,1.323,0,0,1,.432-.264,1.574,1.574,0,0,1,1.077,0,1.334,1.334,0,0,1,.433.264,1.224,1.224,0,0,1,.288.408,1.3,1.3,0,0,1,.105.527,1.1,1.1,0,0,1-.057.348,1.267,1.267,0,0,1-.157.323,1.088,1.088,0,0,1-.25.264.927.927,0,0,1-.33.162v.007a1.146,1.146,0,0,1,.418.172,1.224,1.224,0,0,1,.3.3,1.328,1.328,0,0,1,.186.38,1.5,1.5,0,0,1,.063.432,1.517,1.517,0,0,1-.117.608,1.316,1.316,0,0,1-.323.461,1.5,1.5,0,0,1-.489.3,1.827,1.827,0,0,1-1.224,0,1.484,1.484,0,0,1-.489-.3,1.316,1.316,0,0,1-.323-.461,1.517,1.517,0,0,1-.116-.608,1.5,1.5,0,0,1,.063-.432,1.327,1.327,0,0,1,.187-.38,1.208,1.208,0,0,1,.3-.3,1.146,1.146,0,0,1,.418-.172V197.1a.93.93,0,0,1-.331-.162,1.1,1.1,0,0,1-.25-.264,1.287,1.287,0,0,1-.157-.323A1.1,1.1,0,0,1,755.868,196Zm.288,2.384a1.131,1.131,0,0,0,.077.422,1.037,1.037,0,0,0,.556.58,1.16,1.16,0,0,0,.886,0,1.044,1.044,0,0,0,.556-.58,1.212,1.212,0,0,0-.008-.868,1.055,1.055,0,0,0-.228-.345,1.006,1.006,0,0,0-.341-.222,1.192,1.192,0,0,0-.845,0,1,1,0,0,0-.34.222,1.064,1.064,0,0,0-.229.345A1.143,1.143,0,0,0,756.156,198.383Zm.176-2.384a.927.927,0,0,0,.067.355.915.915,0,0,0,.182.288.874.874,0,0,0,.282.2.894.894,0,0,0,.369.074.9.9,0,0,0,.366-.074.856.856,0,0,0,.285-.2.928.928,0,0,0,.249-.643.9.9,0,1,0-1.8,0Z" transform="translate(-743.273 -194.705)" fill="#323232"/>
      </g>
      <path id="パス_6820" data-name="パス 6820" d="M552.154,151.453h-.211v-4.477H456.566v4.477h-.211v-4.687h95.8Z" transform="translate(-414.442 -137.497)" fill="#323232"/>
      <g id="グループ_342" data-name="グループ 342" transform="translate(82.253)">
        <path id="パス_6821" data-name="パス 6821" d="M514.885,134.3h-.007l-.9.739-.26-.324,1.231-1.006h.359v4.979h-.422Z" transform="translate(-513.718 -133.622)" fill="#323232"/>
        <path id="パス_6822" data-name="パス 6822" d="M518.787,140.225a.338.338,0,1,1,.675,0,.338.338,0,1,1-.675,0Z" transform="translate(-515.222 -135.456)" fill="#323232"/>
        <path id="パス_6823" data-name="パス 6823" d="M521.833,135.9h.014a.836.836,0,0,1,.341-.158,1.671,1.671,0,0,1,.4-.053,1.541,1.541,0,0,1,.612.12,1.483,1.483,0,0,1,.485.327,1.447,1.447,0,0,1,.316.485,1.644,1.644,0,0,1-.01,1.224,1.443,1.443,0,0,1-.342.489,1.589,1.589,0,0,1-.516.32,1.883,1.883,0,0,1-1.3,0,1.587,1.587,0,0,1-.516-.32,1.452,1.452,0,0,1-.341-.489,1.548,1.548,0,0,1-.123-.622,1.589,1.589,0,0,1,.042-.373,1.909,1.909,0,0,1,.113-.334q.07-.158.148-.3c.051-.094.1-.183.155-.268l1.35-2.243h.534Zm.647.154a1.134,1.134,0,0,0-.457.092,1.159,1.159,0,0,0-.619.622,1.14,1.14,0,0,0-.091.454,1.289,1.289,0,0,0,.084.475,1.053,1.053,0,0,0,.608.608,1.379,1.379,0,0,0,.95,0,1.057,1.057,0,0,0,.608-.608,1.289,1.289,0,0,0,.084-.475,1.14,1.14,0,0,0-.091-.454,1.152,1.152,0,0,0-.622-.622A1.139,1.139,0,0,0,522.48,136.055Z" transform="translate(-515.834 -133.622)" fill="#323232"/>
        <path id="パス_6824" data-name="パス 6824" d="M527.885,134.3h-.007l-.9.739-.26-.324,1.231-1.006h.359v4.979h-.423Z" transform="translate(-517.576 -133.622)" fill="#323232"/>
        <path id="パス_6825" data-name="パス 6825" d="M531.553,134.881a1.278,1.278,0,0,1,.106-.527,1.2,1.2,0,0,1,.288-.408,1.323,1.323,0,0,1,.432-.264,1.561,1.561,0,0,1,1.076,0,1.32,1.32,0,0,1,.432.264,1.228,1.228,0,0,1,.289.408,1.3,1.3,0,0,1,.1.527,1.1,1.1,0,0,1-.056.347,1.283,1.283,0,0,1-.158.324,1.1,1.1,0,0,1-.25.264.953.953,0,0,1-.331.162v.007a1.122,1.122,0,0,1,.418.172,1.222,1.222,0,0,1,.3.3,1.287,1.287,0,0,1,.186.38,1.472,1.472,0,0,1,.063.432,1.531,1.531,0,0,1-.116.609,1.313,1.313,0,0,1-.323.46,1.484,1.484,0,0,1-.488.3,1.829,1.829,0,0,1-1.224,0,1.479,1.479,0,0,1-.489-.3,1.332,1.332,0,0,1-.323-.46,1.531,1.531,0,0,1-.116-.609,1.474,1.474,0,0,1,.063-.432,1.293,1.293,0,0,1,.187-.38,1.193,1.193,0,0,1,.3-.3,1.122,1.122,0,0,1,.418-.172v-.007a.96.96,0,0,1-.331-.162,1.138,1.138,0,0,1-.25-.264,1.306,1.306,0,0,1-.158-.324A1.118,1.118,0,0,1,531.553,134.881Zm.288,2.383a1.125,1.125,0,0,0,.078.423,1.036,1.036,0,0,0,.217.345,1.063,1.063,0,0,0,.338.236,1.088,1.088,0,0,0,1.223-.236,1.052,1.052,0,0,0,.219-.345,1.152,1.152,0,0,0,.077-.423,1.137,1.137,0,0,0-.084-.446,1.066,1.066,0,0,0-.228-.345,1,1,0,0,0-.342-.222,1.2,1.2,0,0,0-.844,0,.984.984,0,0,0-.34.222,1.082,1.082,0,0,0-.229.345A1.138,1.138,0,0,0,531.841,137.264Zm.176-2.383a.946.946,0,0,0,.067.355.933.933,0,0,0,.183.288.88.88,0,0,0,.281.2.951.951,0,0,0,.735,0,.865.865,0,0,0,.285-.2.92.92,0,0,0,.183-.288.933.933,0,0,0,.067-.355.9.9,0,1,0-1.8,0Z" transform="translate(-518.958 -133.586)" fill="#323232"/>
      </g>
      <path id="パス_6826" data-name="パス 6826" d="M701.294,151.452h-.211v-4.477h-36.5v4.477h-.211v-4.688h36.926Z" transform="translate(-476.171 -137.497)" fill="#323232"/>
      <g id="グループ_343" data-name="グループ 343" transform="translate(205.499 0.085)">
        <path id="パス_6827" data-name="パス 6827" d="M690.139,134.3h-.007l-.9.739-.259-.324,1.231-1.006h.359v4.979h-.423Z" transform="translate(-688.972 -133.707)" fill="#323232"/>
      </g>
      <g id="グループ_344" data-name="グループ 344" transform="translate(44.482 149.466)">
        <path id="パス_6828" data-name="パス 6828" d="M461.175,346.715h-.007l-.9.738-.26-.324,1.231-1.006h.359V351.1h-.423Z" transform="translate(-460.008 -346.124)" fill="#323232"/>
      </g>
      <path id="パス_6829" data-name="パス 6829" d="M642.8,161.963h-2.813v-.211H642.8Zm-5.626,0h-2.813v-.211h2.813Zm-5.626,0h-2.813v-.211h2.813Zm-5.626,0h-2.813v-.211h2.813Zm-5.626,0H617.48v-.211h2.813Z" transform="translate(-462.257 -141.944)" fill="#323232"/>
      <path id="パス_6830" data-name="パス 6830" d="M642.8,243.449h-2.813v-.211H642.8Zm-5.626,0h-2.813v-.211h2.813Zm-5.626,0h-2.813v-.211h2.813Zm-5.626,0h-2.813v-.211h2.813Zm-5.626,0H617.48v-.211h2.813Z" transform="translate(-462.257 -166.126)" fill="#323232"/>
      <path id="パス_6831" data-name="パス 6831" d="M540.441,218.449l-.179-.111,36.623-59.182.179.111Z" transform="translate(-439.342 -141.174)" fill="#323232"/>
      <path id="パス_6832" data-name="パス 6832" d="M664.641,218.449l-.179-.111,36.623-59.182.179.111Z" transform="translate(-476.199 -141.174)" fill="#323232"/>
      <rect id="長方形_1407" data-name="長方形 1407" width="0.211" height="83.691" transform="translate(15.957 77.292) rotate(-45.04)" fill="#323232"/>
      <path id="パス_6833" data-name="パス 6833" d="M515.336,218.371l-59.016-59.137.149-.149,59.016,59.137Z" transform="translate(-414.432 -141.153)" fill="#323232"/>
      <rect id="長方形_1408" data-name="長方形 1408" width="0.211" height="59.182" transform="translate(100.904 18.037)" fill="#323232"/>
    </g>
  </g>
</svg>
